<svg  xmlns="http://www.w3.org/2000/svg" role="graphics-symbol" viewBox="0 0 16 16" class="typesDate" style="width: 14px; height: 14px; display: block; fill: rgb(85, 83, 78); flex-shrink: 0; margin-right: 6px;"><path d="M3.29688 14.4561H12.7031C14.1797 14.4561 14.9453 13.6904 14.9453 12.2344V3.91504C14.9453 2.45215 14.1797 1.69336 12.7031 1.69336H3.29688C1.82031 1.69336 1.05469 2.45215 1.05469 3.91504V12.2344C1.05469 13.6973 1.82031 14.4561 3.29688 14.4561ZM3.27637 13.1162C2.70898 13.1162 2.39453 12.8154 2.39453 12.2207V5.9043C2.39453 5.30273 2.70898 5.00879 3.27637 5.00879H12.71C13.2842 5.00879 13.6055 5.30273 13.6055 5.9043V12.2207C13.6055 12.8154 13.2842 13.1162 12.71 13.1162H3.27637ZM6.68066 7.38086H7.08398C7.33008 7.38086 7.41211 7.30566 7.41211 7.05957V6.66309C7.41211 6.41699 7.33008 6.3418 7.08398 6.3418H6.68066C6.44141 6.3418 6.35938 6.41699 6.35938 6.66309V7.05957C6.35938 7.30566 6.44141 7.38086 6.68066 7.38086ZM8.92285 7.38086H9.31934C9.56543 7.38086 9.64746 7.30566 9.64746 7.05957V6.66309C9.64746 6.41699 9.56543 6.3418 9.31934 6.3418H8.92285C8.67676 6.3418 8.59473 6.41699 8.59473 6.66309V7.05957C8.59473 7.30566 8.67676 7.38086 8.92285 7.38086ZM11.1582 7.38086H11.5547C11.8008 7.38086 11.8828 7.30566 11.8828 7.05957V6.66309C11.8828 6.41699 11.8008 6.3418 11.5547 6.3418H11.1582C10.9121 6.3418 10.8301 6.41699 10.8301 6.66309V7.05957C10.8301 7.30566 10.9121 7.38086 11.1582 7.38086ZM4.44531 9.58203H4.84863C5.09473 9.58203 5.17676 9.50684 5.17676 9.26074V8.86426C5.17676 8.61816 5.09473 8.54297 4.84863 8.54297H4.44531C4.20605 8.54297 4.12402 8.61816 4.12402 8.86426V9.26074C4.12402 9.50684 4.20605 9.58203 4.44531 9.58203ZM6.68066 9.58203H7.08398C7.33008 9.58203 7.41211 9.50684 7.41211 9.26074V8.86426C7.41211 8.61816 7.33008 8.54297 7.08398 8.54297H6.68066C6.44141 8.54297 6.35938 8.61816 6.35938 8.86426V9.26074C6.35938 9.50684 6.44141 9.58203 6.68066 9.58203ZM8.92285 9.58203H9.31934C9.56543 9.58203 9.64746 9.50684 9.64746 9.26074V8.86426C9.64746 8.61816 9.56543 8.54297 9.31934 8.54297H8.92285C8.67676 8.54297 8.59473 8.61816 8.59473 8.86426V9.26074C8.59473 9.50684 8.67676 9.58203 8.92285 9.58203ZM11.1582 9.58203H11.5547C11.8008 9.58203 11.8828 9.50684 11.8828 9.26074V8.86426C11.8828 8.61816 11.8008 8.54297 11.5547 8.54297H11.1582C10.9121 8.54297 10.8301 8.61816 10.8301 8.86426V9.26074C10.8301 9.50684 10.9121 9.58203 11.1582 9.58203ZM4.44531 11.7832H4.84863C5.09473 11.7832 5.17676 11.708 5.17676 11.4619V11.0654C5.17676 10.8193 5.09473 10.7441 4.84863 10.7441H4.44531C4.20605 10.7441 4.12402 10.8193 4.12402 11.0654V11.4619C4.12402 11.708 4.20605 11.7832 4.44531 11.7832ZM6.68066 11.7832H7.08398C7.33008 11.7832 7.41211 11.708 7.41211 11.4619V11.0654C7.41211 10.8193 7.33008 10.7441 7.08398 10.7441H6.68066C6.44141 10.7441 6.35938 10.8193 6.35938 11.0654V11.4619C6.35938 11.708 6.44141 11.7832 6.68066 11.7832ZM8.92285 11.7832H9.31934C9.56543 11.7832 9.64746 11.708 9.64746 11.4619V11.0654C9.64746 10.8193 9.56543 10.7441 9.31934 10.7441H8.92285C8.67676 10.7441 8.59473 10.8193 8.59473 11.0654V11.4619C8.59473 11.708 8.67676 11.7832 8.92285 11.7832Z"></path></svg>