<svg xmlns="http://www.w3.org/2000/svg" role="graphics-symbol" viewBox="0 0 36 32" class="magicWand" style="width: 16px; height: 16px; display: block; fill: rgb(167, 130, 195); flex-shrink: 0;"><path d="M13.984 7.484c.188 0 .282-.109.313-.28.531-2.5.5-2.595 3.125-3.126.172-.031.297-.14.297-.312 0-.188-.125-.297-.297-.329-2.625-.53-2.594-.624-3.125-3.109-.031-.172-.125-.297-.313-.297-.187 0-.28.125-.312.297-.531 2.485-.5 2.578-3.125 3.11-.172.03-.297.14-.297.328 0 .171.125.28.297.312 2.625.531 2.594.625 3.125 3.125.031.172.125.281.312.281zM26.891 13c.218 0 .343-.14.39-.344.532-2.969.547-3.156 3.688-3.703.218-.031.36-.172.36-.39 0-.22-.142-.344-.36-.391-3.14-.531-3.157-.719-3.688-3.688-.047-.203-.172-.359-.39-.359-.22 0-.344.156-.391.36-.531 2.968-.547 3.156-3.688 3.687-.203.047-.359.172-.359.39 0 .22.156.36.36.391 3.14.547 3.156.735 3.687 3.703.047.203.172.344.39.344zM5.42 17.484c.22 0 .345-.156.391-.359.532-2.969.547-3.156 3.688-3.688.203-.046.36-.171.36-.39s-.157-.36-.36-.39c-3.14-.548-3.156-.735-3.688-3.704-.046-.203-.171-.344-.39-.344s-.344.141-.39.344c-.532 2.969-.548 3.156-3.688 3.703-.203.031-.36.172-.36.39 0 .22.157.345.36.392 3.14.53 3.156.718 3.687 3.687.047.203.172.36.39.36zm26.688 13.36c.657.672 1.782.672 2.407 0 .64-.688.64-1.75 0-2.407l-14.86-14.906c-.656-.656-1.781-.656-2.406 0a1.75 1.75 0 000 2.422l14.86 14.89zm-9.093-10.735l-4.578-4.593c-.282-.282-.375-.594-.094-.86.234-.25.562-.187.86.11l4.593 4.593-.781.75zM12.844 31.094c.281 0 .484-.203.531-.5.5-4.172.703-4.282 4.953-4.969.328-.063.531-.219.531-.531 0-.297-.203-.485-.468-.532-4.282-.812-4.516-.796-5.016-4.968-.047-.297-.25-.5-.531-.5-.297 0-.5.203-.531.484-.547 4.235-.688 4.375-5.016 4.985a.516.516 0 00-.469.53c0 .298.203.47.469.532 4.328.828 4.453.828 5.016 5a.516.516 0 00.53.469z"></path></svg>