<svg xmlns="http://www.w3.org/2000/svg" viewBox="0 0 64 64"><defs fill="#55534E"/><path d="m47.78,40c-5.94,0-10.77,3.4-12.78,8.45v-11.48c1.07.61,2.27.92,3.48.92,5.09,0,6.99-4.53,6.99-7,0-.54-.02-3.24-2.47-5.32,4.09-.32,6.46-3.76,6.46-6.97,0-.72-.11-1.45-.34-2.16-.96-2.96-3.71-4.84-6.66-4.84-1.75,0-3,.64-3.66,1.04.13-.53.2-1.08.2-1.64,0-3.87-3.13-7-7-7s-7,3.13-7,7c0,.57.07,1.12.2,1.64-.66-.41-1.92-1.04-3.66-1.04-2.95,0-5.69,1.88-6.66,4.84-.23.72-.34,1.45-.34,2.16,0,3.22,2.4,6.65,6.46,6.97-2.44,2.08-2.47,4.78-2.47,5.32,0,2.43,1.89,7,6.99,7,1.21,0,2.42-.31,3.48-.92v11.48c-2-5.05-6.84-8.45-12.78-8.45l-2.22,2.22,13.78,13.78h8.45l13.78-13.78-2.22-2.22Zm-15.78-14c-2.21,0-4-1.79-4-4s1.79-4,4-4,4,1.79,4,4-1.79,4-4,4Z" fill="#55534E"/></svg>