<svg  xmlns="http://www.w3.org/2000/svg" role="graphics-symbol" viewBox="0 0 16 16" class="groupByVertical" style="width: 24px; height: 16px; display: block; fill: inherit; flex-shrink: 0; margin-right: -2px;"><path d="M0.952148 1.83008H15.041C15.3691 1.83008 15.5879 1.59082 15.5879 1.24219C15.5879 0.893555 15.3691 0.647461 15.041 0.647461H0.952148C0.624023 0.647461 0.405273 0.886719 0.405273 1.24219C0.405273 1.59082 0.624023 1.83008 0.952148 1.83008ZM1.875 7.44238H3.2832C4.26758 7.44238 4.75293 6.95703 4.75293 5.94531V4.58496C4.75293 3.57324 4.26758 3.09473 3.2832 3.09473H1.875C0.890625 3.09473 0.405273 3.57324 0.405273 4.58496V5.94531C0.405273 6.95703 0.890625 7.44238 1.875 7.44238ZM7.28906 7.44238H8.69727C9.68164 7.44238 10.167 6.95703 10.167 5.94531V4.58496C10.167 3.57324 9.68164 3.09473 8.69727 3.09473H7.28906C6.30469 3.09473 5.81934 3.57324 5.81934 4.58496V5.94531C5.81934 6.95703 6.30469 7.44238 7.28906 7.44238ZM12.71 7.44238H14.1182C15.1025 7.44238 15.5879 6.95703 15.5879 5.94531V4.58496C15.5879 3.57324 15.1025 3.09473 14.1182 3.09473H12.71C11.7188 3.09473 11.2402 3.57324 11.2402 4.58496V5.94531C11.2402 6.95703 11.7188 7.44238 12.71 7.44238ZM1.88184 6.31445C1.64258 6.31445 1.52637 6.19824 1.52637 5.94531V4.57812C1.52637 4.33887 1.64258 4.21582 1.88184 4.21582H3.26953C3.50879 4.21582 3.625 4.33887 3.625 4.57812V5.94531C3.625 6.19824 3.50879 6.31445 3.26953 6.31445H1.88184ZM7.30273 6.31445C7.05664 6.31445 6.94727 6.19824 6.94727 5.94531V4.57812C6.94727 4.33887 7.05664 4.21582 7.30273 4.21582H8.69043C8.92969 4.21582 9.0459 4.33887 9.0459 4.57812V5.94531C9.0459 6.19824 8.92969 6.31445 8.69043 6.31445H7.30273ZM12.7168 6.31445C12.4775 6.31445 12.3613 6.19824 12.3613 5.94531V4.57812C12.3613 4.33887 12.4775 4.21582 12.7168 4.21582H14.1045C14.3438 4.21582 14.46 4.33887 14.46 4.57812V5.94531C14.46 6.19824 14.3438 6.31445 14.1045 6.31445H12.7168ZM0.952148 9.82812H15.041C15.3691 9.82812 15.5879 9.58887 15.5879 9.24023C15.5879 8.8916 15.3691 8.64551 15.041 8.64551H0.952148C0.624023 8.64551 0.405273 8.88477 0.405273 9.24023C0.405273 9.5957 0.624023 9.82812 0.952148 9.82812ZM1.88184 15.4404H3.29004C4.27441 15.4404 4.75977 14.9619 4.75977 13.9434V12.583C4.75977 11.5713 4.27441 11.0928 3.29004 11.0928H1.88184C0.897461 11.0928 0.412109 11.5713 0.412109 12.583V13.9434C0.412109 14.9619 0.897461 15.4404 1.88184 15.4404ZM7.2959 15.4404H8.7041C9.68848 15.4404 10.1738 14.9619 10.1738 13.9434V12.583C10.1738 11.5713 9.68848 11.0928 8.7041 11.0928H7.2959C6.31152 11.0928 5.82617 11.5713 5.82617 12.583V13.9434C5.82617 14.9619 6.31152 15.4404 7.2959 15.4404ZM12.7168 15.4404H14.1182C15.1094 15.4404 15.5879 14.9619 15.5879 13.9434V12.583C15.5879 11.5713 15.1094 11.0928 14.1182 11.0928H12.7168C11.7256 11.0928 11.2471 11.5713 11.2471 12.583V13.9434C11.2471 14.9619 11.7256 15.4404 12.7168 15.4404ZM1.88867 14.3125C1.64941 14.3125 1.5332 14.1963 1.5332 13.9502V12.583C1.5332 12.3369 1.64941 12.2139 1.88867 12.2139H3.27637C3.51562 12.2139 3.63184 12.3369 3.63184 12.583V13.9502C3.63184 14.1963 3.51562 14.3125 3.27637 14.3125H1.88867ZM7.30957 14.3125C7.06348 14.3125 6.9541 14.1963 6.9541 13.9502V12.583C6.9541 12.3369 7.06348 12.2139 7.30957 12.2139H8.69727C8.93652 12.2139 9.05273 12.3369 9.05273 12.583V13.9502C9.05273 14.1963 8.93652 14.3125 8.69727 14.3125H7.30957ZM12.7236 14.3125C12.4844 14.3125 12.3682 14.1963 12.3682 13.9502V12.583C12.3682 12.3369 12.4844 12.2139 12.7236 12.2139H14.1113C14.3506 12.2139 14.4668 12.3369 14.4668 12.583V13.9502C14.4668 14.1963 14.3506 14.3125 14.1113 14.3125H12.7236Z"></path></svg>