<svg xmlns="http://www.w3.org/2000/svg" role="graphics-symbol" viewBox="0 0 16 16" class="typesNumber" style="width: 16px; height: 16px; display: block; fill: rgba(55, 53, 47, 0.85); flex-shrink: 0;"><path d="M2.4834 10.9902H4.33594L3.75488 13.8887C3.74121 13.9639 3.72754 14.0664 3.72754 14.1416C3.72754 14.5381 3.99414 14.7637 4.39746 14.7637C4.81445 14.7637 5.09473 14.5449 5.18359 14.1143L5.80566 10.9902H8.79297L8.21191 13.8887C8.19824 13.9639 8.18457 14.0664 8.18457 14.1416C8.18457 14.5381 8.45117 14.7637 8.85449 14.7637C9.27148 14.7637 9.55176 14.5449 9.63379 14.1143L10.2627 10.9902H12.4502C12.9287 10.9902 13.2432 10.6758 13.2432 10.2109C13.2432 9.8418 12.9902 9.56836 12.6006 9.56836H10.5498L11.2129 6.28711H13.3662C13.8379 6.28711 14.1523 5.96582 14.1523 5.50098C14.1523 5.13184 13.9062 4.8584 13.5098 4.8584H11.5L12.0195 2.27441C12.0264 2.21973 12.0469 2.11035 12.0469 2.01465C12.0469 1.625 11.7666 1.39258 11.3633 1.39258C10.9053 1.39258 10.6797 1.63867 10.5977 2.05566L10.0303 4.8584H7.04297L7.5625 2.27441C7.57617 2.21973 7.58984 2.11035 7.58984 2.01465C7.58984 1.625 7.30957 1.39258 6.91309 1.39258C6.44824 1.39258 6.21582 1.63867 6.13379 2.05566L5.57324 4.8584H3.54297C3.06445 4.8584 2.75 5.18652 2.75 5.65137C2.75 6.03418 3.00293 6.28711 3.39258 6.28711H5.28613L4.62305 9.56836H2.63379C2.15527 9.56836 1.84082 9.89648 1.84082 10.3613C1.84082 10.7373 2.09375 10.9902 2.4834 10.9902ZM6.09277 9.56836L6.75586 6.28711H9.74316L9.08008 9.56836H6.09277Z"></path></svg>