<svg  xmlns="http://www.w3.org/2000/svg" role="graphics-symbol" viewBox="0 0 24 24" class="eyeHidePadded" style="width: 22px; height: 100%; display: block; fill: inherit; flex-shrink: 0; margin-left: -4px; margin-right: -4px;"><path d="M17.3867 18.1074C17.6055 18.3193 17.9404 18.333 18.1592 18.1074C18.3848 17.875 18.3711 17.5469 18.1592 17.335L6.5791 5.76855C6.37402 5.55664 6.01855 5.5498 5.80664 5.76855C5.60156 5.97363 5.60156 6.3291 5.80664 6.53418L17.3867 18.1074ZM12 6.1582C10.8105 6.1582 9.73047 6.36328 8.72559 6.69141L9.81934 7.78516C10.5098 7.58691 11.2275 7.4707 12 7.4707C16.3682 7.4707 19.8408 11.2715 19.8408 12.0713C19.8408 12.6113 18.7334 14.0059 16.9766 15.1064L17.9883 16.125C20.1348 14.7168 21.3857 12.8779 21.3857 12.0713C21.3857 10.6699 17.6055 6.1582 12 6.1582ZM12 17.9912C13.2646 17.9912 14.4199 17.7725 15.4658 17.4102L14.3789 16.3232C13.6338 16.542 12.8477 16.6787 12 16.6787C7.63184 16.6787 4.15918 13.0283 4.15918 12.0713C4.15918 11.6133 5.32129 10.1299 7.19434 8.98145L6.16211 7.94922C3.92676 9.37109 2.60742 11.251 2.60742 12.0713C2.60742 13.4727 6.46973 17.9912 12 17.9912ZM15.4111 13.3906C15.5889 12.9873 15.6914 12.5361 15.6914 12.0713C15.6914 10.0137 14.0508 8.39355 12 8.39355C11.5283 8.39355 11.084 8.48242 10.6738 8.65332L15.4111 13.3906ZM12 15.7559C12.5332 15.7559 13.0322 15.6328 13.4766 15.4209L8.64355 10.5811C8.4248 11.0322 8.30176 11.5312 8.30176 12.0781C8.30859 14.0811 9.94238 15.7559 12 15.7559Z"></path></svg>