<svg xmlns="http://www.w3.org/2000/svg" width="21" height="21" viewBox="0 0 21 21" fill="none">
  <path d="M9.4923 0.78894H5.7533C2.6783 0.78894 0.750305 2.96594 0.750305 6.04794V14.3619C0.750305 17.4439 2.6693 19.6209 5.7533 19.6209H14.5773C17.6623 19.6209 19.5813 17.4439 19.5813 14.3619V10.3339" stroke="#1A162E" stroke-width="1.5" stroke-linecap="round" stroke-linejoin="round"/>
  <path fill-rule="evenodd" clip-rule="evenodd" d="M6.82782 8.92087L14.3008 1.44787C15.2318 0.517866 16.7408 0.517866 17.6718 1.44787L18.8888 2.66487C19.8198 3.59587 19.8198 5.10587 18.8888 6.03587L11.3798 13.5449C10.9728 13.9519 10.4208 14.1809 9.84482 14.1809H6.09882L6.19282 10.4009C6.20682 9.84487 6.43382 9.31487 6.82782 8.92087Z" stroke="#1A162E" stroke-width="1.5" stroke-linecap="round" stroke-linejoin="round"/>
  <path d="M13.1652 2.60242L17.7312 7.16842" stroke="#1A162E" stroke-width="1.5" stroke-linecap="round" stroke-linejoin="round"/>
</svg>