<svg xmlns="http://www.w3.org/2000/svg" role="graphics-symbol" viewBox="0 0 24 24" class="layoutPadded" style="width: 24px; height: 24px; display: block; fill: inherit; flex-shrink: 0; margin-right: -2px;"><path d="M3.94727 11.832H10.2295C11.3574 11.832 11.9248 11.2715 11.9248 10.1504V7.30664C11.9248 6.18555 11.3574 5.625 10.2295 5.625H3.94727C2.81934 5.625 2.25195 6.18555 2.25195 7.30664V10.1504C2.25195 11.2715 2.81934 11.832 3.94727 11.832ZM15.6572 17.5811H20.0459C21.1738 17.5811 21.7412 17.0273 21.7412 15.8994V8.33203C21.7412 7.21094 21.1738 6.65723 20.0459 6.65723H15.6572C14.5361 6.65723 13.9688 7.21094 13.9688 8.33203V15.8994C13.9688 17.0273 14.5361 17.5811 15.6572 17.5811ZM4.11133 10.5469C3.73535 10.5469 3.53711 10.3486 3.53711 9.95898V7.49805C3.53711 7.10156 3.73535 6.91016 4.11133 6.91016H10.0586C10.4414 6.91016 10.6396 7.10156 10.6396 7.49805V9.95898C10.6396 10.3486 10.4414 10.5469 10.0586 10.5469H4.11133ZM15.8213 16.3027C15.4521 16.3027 15.2471 16.1045 15.2471 15.7148V8.52344C15.2471 8.12695 15.4521 7.93555 15.8213 7.93555H19.875C20.2578 7.93555 20.4561 8.12695 20.4561 8.52344V15.7148C20.4561 16.1045 20.2578 16.3027 19.875 16.3027H15.8213ZM5.66309 18.4629H10.9951C12.1162 18.4629 12.6904 17.9092 12.6904 16.7812V14.8535C12.6904 13.7324 12.1162 13.1787 10.9951 13.1787H5.66309C4.53516 13.1787 3.96777 13.7324 3.96777 14.8535V16.7812C3.96777 17.9092 4.53516 18.4629 5.66309 18.4629ZM5.82715 17.1846C5.45117 17.1846 5.25293 16.9863 5.25293 16.5967V15.0449C5.25293 14.6553 5.45117 14.4639 5.82715 14.4639H10.8242C11.2002 14.4639 11.4053 14.6553 11.4053 15.0449V16.5967C11.4053 16.9863 11.2002 17.1846 10.8242 17.1846H5.82715Z"></path></svg>