<svg xmlns="http://www.w3.org/2000/svg" role="graphics-symbol" viewBox="0 0 16 16" class="nest" style="width: 24px; height: 16px; display: block; fill: inherit; flex-shrink: 0; margin-right: -2px;"><g><path d="M5.59375 4.52344H14.3984C14.7607 4.52344 15.0479 4.23633 15.0479 3.87402C15.0479 3.51172 14.7607 3.22461 14.3984 3.22461H5.59375C5.23145 3.22461 4.94434 3.51172 4.94434 3.87402C4.94434 4.23633 5.22461 4.52344 5.59375 4.52344ZM8 8.7207H14.3984C14.7607 8.7207 15.0479 8.43359 15.0479 8.07129C15.0479 7.70898 14.7607 7.42188 14.3984 7.42188H8C7.6377 7.42188 7.35059 7.70898 7.35059 8.07129C7.35059 8.43359 7.63086 8.7207 8 8.7207ZM10 12.918H14.3984C14.7607 12.918 15.0479 12.6309 15.0479 12.2686C15.0479 11.9062 14.7607 11.6191 14.3984 11.6191H10C9.6377 11.6191 9.35059 11.9062 9.35059 12.2686C9.35059 12.6309 9.63086 12.918 10 12.918Z"></path><path d="M1.66386 4.7627L0.898238 3.46387C0.713668 3.14941 0.829878 2.80762 1.19218 2.80762H2.85332C3.22929 2.80762 3.33867 3.14258 3.14726 3.46387L2.36113 4.7627C2.21074 5.01562 1.82109 5.02246 1.66386 4.7627Z"></path><path d="M3.85358 8.94885L3.08795 7.65002C2.90338 7.33557 3.01275 6.99377 3.3819 6.99377H5.03619C5.41217 6.99377 5.52838 7.32874 5.33014 7.65002L4.55084 8.94885C4.40045 9.20178 4.0108 9.20862 3.85358 8.94885Z"></path><path d="M6.90723 12.6377L5.6084 13.4033C5.29395 13.5878 4.95215 13.4716 4.95215 13.1093V11.4482C4.95215 11.0722 5.28711 10.9628 5.6084 11.1543L6.90723 11.9404C7.16016 12.0908 7.16699 12.4804 6.90723 12.6377Z"></path></g></svg>