<svg xmlns="http://www.w3.org/2000/svg"  role="graphics-symbol" viewBox="0 0 48 48" class="folderUnknownLarge" style="width: 100%; height: 48px; display: block; fill: rgba(55, 53, 47, 0.35); flex-shrink: 0; margin: 0px auto;"><path d="M39.1702 25.1855C43.1252 25.1855 46.4504 21.8896 46.4504 17.9053C46.4504 13.9062 43.1692 10.625 39.1702 10.625C35.1858 10.625 31.8899 13.9209 31.8899 17.9053C31.8899 21.9189 35.1858 25.1855 39.1702 25.1855ZM11.6604 37.5195H36.1379C38.7014 37.5195 40.1663 36.0547 40.1663 33.2422V26.8408C39.6829 26.9141 38.9504 26.9141 38.3498 26.8408V33.1543C38.3498 34.8389 37.427 35.7178 35.801 35.7178H11.6897C10.0491 35.7178 9.15551 34.8389 9.15551 33.1543V21.1133H30.7327C30.5276 20.5713 30.3811 20 30.3079 19.3994H9.15551V15.3125C9.15551 13.7598 9.94652 12.9834 11.4553 12.9834H14.8391C15.9084 12.9834 16.4797 13.2031 17.2707 13.9062L18.1057 14.6387C19.0286 15.4443 19.761 15.708 21.2405 15.708H30.4543C30.6008 15.0635 30.7766 14.5215 31.0842 13.8916H21.6799C20.5666 13.8916 19.9807 13.6865 19.219 13.0127L18.3694 12.2803C17.4172 11.4307 16.7434 11.1963 15.2786 11.1963H11.1038C8.67211 11.1963 7.3391 12.5293 7.3391 15.21V33.2422C7.3391 36.084 8.80395 37.5195 11.6604 37.5195ZM39.053 19.6924C38.5989 19.6924 38.3352 19.4287 38.3352 18.9746V18.916C38.3352 18.0811 38.76 17.6416 39.4485 17.1582C40.2248 16.6162 40.7375 16.2793 40.7375 15.5615C40.7375 14.9023 40.1955 14.4775 39.3606 14.4775C38.6575 14.4775 38.1741 14.8145 37.8664 15.166C37.6174 15.4297 37.4416 15.6934 37.0608 15.6934C36.6653 15.6934 36.4016 15.4297 36.4016 15.0195C36.4016 14.0088 37.8079 13.1299 39.3606 13.1299C41.133 13.1299 42.2463 14.1699 42.2463 15.4883C42.2463 16.5869 41.6164 17.0557 40.7815 17.6709C40.1077 18.1689 39.844 18.4473 39.7854 19.0479C39.7414 19.4434 39.5071 19.6924 39.053 19.6924ZM39.053 22.5195C38.4817 22.5195 38.0129 22.0508 38.0129 21.4795C38.0129 20.9229 38.4817 20.4541 39.053 20.4541C39.6243 20.4541 40.093 20.9229 40.093 21.4795C40.0784 22.0508 39.6243 22.5195 39.053 22.5195Z"></path></svg>
