<svg  xmlns="http://www.w3.org/2000/svg" role="graphics-symbol" viewBox="0 0 16 16" class="filter" style="width: 14px; height: 100%; display: block; fill: inherit; flex-shrink: 0;"><path d="M1.63574 5.17969H14.3643C14.7197 5.17969 15.0068 4.88574 15.0068 4.53027C15.0068 4.1748 14.7197 3.8877 14.3643 3.8877H1.63574C1.27344 3.8877 0.993164 4.1748 0.993164 4.53027C0.993164 4.88574 1.28027 5.17969 1.63574 5.17969ZM3.05078 8.71387H12.9766C13.332 8.71387 13.6191 8.41992 13.6191 8.06445C13.6191 7.70215 13.3389 7.41504 12.9766 7.41504H3.05078C2.68848 7.41504 2.4082 7.70898 2.4082 8.06445C2.4082 8.41309 2.69531 8.71387 3.05078 8.71387ZM4.43848 12.2412H11.5889C11.9512 12.2412 12.2314 11.9473 12.2314 11.5918C12.2314 11.2363 11.9512 10.9492 11.5889 10.9492H4.43848C4.07617 10.9492 3.7959 11.2363 3.7959 11.5918C3.7959 11.9473 4.07617 12.2412 4.43848 12.2412Z"></path></svg>