<svg  xmlns="http://www.w3.org/2000/svg" role="graphics-symbol" viewBox="0 0 16 16" class="typesFormula" style="width: 16px; height: 16px; display: block; fill: rgba(55, 53, 47, 0.85); flex-shrink: 0;"><path d="M5.04688 14.3604H11.2744C11.7324 14.3604 12.0537 14.0801 12.0537 13.6494C12.0537 13.2119 11.7324 12.9248 11.2744 12.9248H5.81934V12.8564L9.30566 8.82324C9.54492 8.57031 9.6748 8.29688 9.6748 8.0166C9.6748 7.73633 9.54492 7.45605 9.29883 7.20996L5.81934 3.2793V3.21094H11.2812C11.7393 3.21094 12.0537 2.92383 12.0537 2.48633C12.0537 2.05566 11.7393 1.77539 11.2812 1.77539H5.05371C4.34277 1.77539 3.95312 2.26758 3.95312 2.81445C3.95312 3.12207 4.07617 3.44336 4.33594 3.69629L8.15039 7.96875V8.05078L4.3291 12.4395C4.06934 12.6924 3.94629 13.0137 3.94629 13.3213C3.94629 13.8682 4.33594 14.3604 5.04688 14.3604Z"></path></svg>